<svg width="200" height="200" viewBox="0 0 200 200" xmlns="http://www.w3.org/2000/svg">
  <!-- Cat body -->
  <ellipse cx="100" cy="130" rx="45" ry="35" fill="#FFB347" stroke="#FF8C00" stroke-width="2"/>

  <!-- Cat head -->
  <circle cx="100" cy="80" r="40" fill="#FFB347" stroke="#FF8C00" stroke-width="2"/>

  <!-- Cat ears -->
  <polygon points="75,50 85,25 95,50" fill="#FFB347" stroke="#FF8C00" stroke-width="2"/>
  <polygon points="105,50 115,25 125,50" fill="#FFB347" stroke="#FF8C00" stroke-width="2"/>

  <!-- Inner ears -->
  <polygon points="78,45 83,32 88,45" fill="#FF69B4"/>
  <polygon points="112,45 117,32 122,45" fill="#FF69B4"/>

  <!-- Cat eyes -->
  <ellipse cx="88" cy="75" rx="8" ry="12" fill="#000"/>
  <ellipse cx="112" cy="75" rx="8" ry="12" fill="#000"/>
  <ellipse cx="88" cy="72" rx="3" ry="6" fill="#00FF00"/>
  <ellipse cx="112" cy="72" rx="3" ry="6" fill="#00FF00"/>
  <ellipse cx="89" cy="70" rx="1.5" ry="3" fill="#FFF"/>
  <ellipse cx="113" cy="70" rx="1.5" ry="3" fill="#FFF"/>

  <!-- Cat nose -->
  <polygon points="100,85 95,90 105,90" fill="#FF1493"/>

  <!-- Cat mouth -->
  <path d="M 100 92 Q 95 95 90 92" stroke="#000" stroke-width="2" fill="none"/>
  <path d="M 100 92 Q 105 95 110 92" stroke="#000" stroke-width="2" fill="none"/>

  <!-- Cat whiskers -->
  <line x1="60" y1="82" x2="85" y2="80" stroke="#000" stroke-width="1"/>
  <line x1="60" y1="88" x2="85" y2="85" stroke="#000" stroke-width="1"/>
  <line x1="115" y1="80" x2="140" y2="82" stroke="#000" stroke-width="1"/>
  <line x1="115" y1="85" x2="140" y2="88" stroke="#000" stroke-width="1"/>

  <!-- Cat tail -->
  <path d="M 140 120 Q 160 100 170 140 Q 165 160 145 150" fill="#FFB347" stroke="#FF8C00" stroke-width="2"/>

  <!-- Cat paws -->
  <ellipse cx="75" cy="155" rx="8" ry="12" fill="#FFB347" stroke="#FF8C00" stroke-width="2"/>
  <ellipse cx="95" cy="160" rx="8" ry="12" fill="#FFB347" stroke="#FF8C00" stroke-width="2"/>
  <ellipse cx="105" cy="160" rx="8" ry="12" fill="#FFB347" stroke="#FF8C00" stroke-width="2"/>
  <ellipse cx="125" cy="155" rx="8" ry="12" fill="#FFB347" stroke="#FF8C00" stroke-width="2"/>

  <!-- Paw pads -->
  <ellipse cx="75" cy="160" rx="3" ry="4" fill="#FF1493"/>
  <ellipse cx="95" cy="165" rx="3" ry="4" fill="#FF1493"/>
  <ellipse cx="105" cy="165" rx="3" ry="4" fill="#FF1493"/>
  <ellipse cx="125" cy="160" rx="3" ry="4" fill="#FF1493"/>
</svg>